<mxfile host="app.diagrams.net" modified="2022-03-08T06:15:56.072Z" agent="5.0 (X11; Linux x86_64) AppleWebKit/537.36 (KHTML, like Gecko) Chrome/98.0.4758.102 Safari/537.36" etag="UwpCg8U5x3nKea_Z4_Uv" version="15.8.3" type="github">
  <diagram id="ISEFUh-8GRva-CormYui" name="Page-1">
    <mxGraphModel dx="1362" dy="809" grid="1" gridSize="10" guides="1" tooltips="1" connect="1" arrows="1" fold="1" page="1" pageScale="1" pageWidth="827" pageHeight="1169" math="0" shadow="0">
      <root>
        <mxCell id="0" />
        <mxCell id="1" parent="0" />
        <mxCell id="9vI3j0oMFi5mTSG8hSKA-7" style="edgeStyle=orthogonalEdgeStyle;rounded=0;orthogonalLoop=1;jettySize=auto;html=1;exitX=1;exitY=0.5;exitDx=0;exitDy=0;entryX=0;entryY=0.5;entryDx=0;entryDy=0;" edge="1" parent="1" source="9vI3j0oMFi5mTSG8hSKA-3" target="9vI3j0oMFi5mTSG8hSKA-4">
          <mxGeometry relative="1" as="geometry" />
        </mxCell>
        <mxCell id="9vI3j0oMFi5mTSG8hSKA-3" value="Input Video Frame" style="rounded=0;whiteSpace=wrap;html=1;" vertex="1" parent="1">
          <mxGeometry x="40" y="160" width="120" height="60" as="geometry" />
        </mxCell>
        <mxCell id="9vI3j0oMFi5mTSG8hSKA-8" style="edgeStyle=orthogonalEdgeStyle;rounded=0;orthogonalLoop=1;jettySize=auto;html=1;exitX=1;exitY=0.5;exitDx=0;exitDy=0;entryX=0;entryY=0.5;entryDx=0;entryDy=0;" edge="1" parent="1" source="9vI3j0oMFi5mTSG8hSKA-4" target="9vI3j0oMFi5mTSG8hSKA-5">
          <mxGeometry relative="1" as="geometry" />
        </mxCell>
        <mxCell id="9vI3j0oMFi5mTSG8hSKA-4" value="Custom Object Detection Module" style="rounded=0;whiteSpace=wrap;html=1;" vertex="1" parent="1">
          <mxGeometry x="240" y="160" width="120" height="60" as="geometry" />
        </mxCell>
        <mxCell id="9vI3j0oMFi5mTSG8hSKA-9" style="edgeStyle=orthogonalEdgeStyle;rounded=0;orthogonalLoop=1;jettySize=auto;html=1;exitX=1;exitY=0.5;exitDx=0;exitDy=0;entryX=0;entryY=0.5;entryDx=0;entryDy=0;" edge="1" parent="1" source="9vI3j0oMFi5mTSG8hSKA-5" target="9vI3j0oMFi5mTSG8hSKA-6">
          <mxGeometry relative="1" as="geometry" />
        </mxCell>
        <mxCell id="9vI3j0oMFi5mTSG8hSKA-5" value="Trajectory Prediction Module" style="rounded=0;whiteSpace=wrap;html=1;" vertex="1" parent="1">
          <mxGeometry x="440" y="160" width="120" height="60" as="geometry" />
        </mxCell>
        <mxCell id="9vI3j0oMFi5mTSG8hSKA-11" style="edgeStyle=orthogonalEdgeStyle;rounded=0;orthogonalLoop=1;jettySize=auto;html=1;exitX=1;exitY=0.5;exitDx=0;exitDy=0;" edge="1" parent="1" source="9vI3j0oMFi5mTSG8hSKA-6" target="9vI3j0oMFi5mTSG8hSKA-10">
          <mxGeometry relative="1" as="geometry" />
        </mxCell>
        <mxCell id="9vI3j0oMFi5mTSG8hSKA-6" value="Collision Detection Module" style="rounded=0;whiteSpace=wrap;html=1;" vertex="1" parent="1">
          <mxGeometry x="640" y="160" width="120" height="60" as="geometry" />
        </mxCell>
        <mxCell id="9vI3j0oMFi5mTSG8hSKA-10" value="Output Video Frame" style="rounded=0;whiteSpace=wrap;html=1;" vertex="1" parent="1">
          <mxGeometry x="840" y="160" width="120" height="60" as="geometry" />
        </mxCell>
      </root>
    </mxGraphModel>
  </diagram>
</mxfile>
